name analog
datacolumns 19
datarows 33
range 0.40100000000000013 0.41700000000000015
endheader
time	ground_force_vx	ground_force_vy	ground_force_vz	ground_force_px	ground_force_py	ground_force_pz	l_ground_force_vx	l_ground_force_vy	l_ground_force_vz	l_ground_force_px	l_ground_force_py	l_ground_force_pz	ground_torque_x	ground_torque_y	ground_torque_z	l_ground_torque_x	l_ground_torque_y	l_ground_torque_z
0.40100000000000013	-0.0	-0.0	-0.0	-1.7155916690826416	-1.3163825273513794	-721.6552124023438	-0.0	-0.0	-0.0	-0.0	-0.0	-0.0	-0.0	-0.0	-0.0	-0.0	-0.0	-0.0
0.40150000000000013	-0.0	-0.0	-0.0	-1.7766191959381104	-0.6032633781433105	-716.442626953125	-0.0	-0.0	-0.0	-0.0	-0.0	-0.0	-0.0	-0.0	-0.0	-0.0	-0.0	-0.0
0.40200000000000014	-0.0	-0.0	-0.0	-1.346445083618164	0.3212915360927582	-712.446044921875	-0.0	-0.0	-0.0	-0.0	-0.0	-0.0	-0.0	-0.0	-0.0	-0.0	-0.0	-0.0
0.40250000000000014	-0.0	-0.0	-0.0	-1.2489471435546875	0.460490882396698	-705.983154296875	-0.0	-0.0	-0.0	-0.0	-0.0	-0.0	-0.0	-0.0	-0.0	-0.0	-0.0	-0.0
0.40300000000000014	-0.0	-0.0	-0.0	-0.4517034590244293	0.7186890840530396	-698.545166015625	-0.0	-0.0	-0.0	-0.0	-0.0	-0.0	-0.0	-0.0	-0.0	-0.0	-0.0	-0.0
0.40350000000000014	-0.0	-0.0	-0.0	0.4723672270774841	0.6185681819915771	-693.7902221679688	-0.0	-0.0	-0.0	-0.0	-0.0	-0.0	-0.0	-0.0	-0.0	-0.0	-0.0	-0.0
0.40400000000000014	-0.0	-0.0	-0.0	1.0494939088821411	-0.2985585927963257	-687.517822265625	-0.0	-0.0	-0.0	-0.0	-0.0	-0.0	-0.0	-0.0	-0.0	-0.0	-0.0	-0.0
0.40450000000000014	-0.0	-0.0	-0.0	1.558797836303711	-0.7974057197570801	-684.2766723632812	-0.0	-0.0	-0.0	-0.0	-0.0	-0.0	-0.0	-0.0	-0.0	-0.0	-0.0	-0.0
0.40500000000000014	-0.0	-0.0	-0.0	2.3406498432159424	-2.5892820358276367	-678.3569946289062	-0.0	-0.0	-0.0	-0.0	-0.0	-0.0	-0.0	-0.0	-0.0	-0.0	-0.0	-0.0
0.40550000000000014	-0.0	-0.0	-0.0	2.6508607864379883	-3.896306037902832	-676.2388305664062	-0.0	-0.0	-0.0	-0.0	-0.0	-0.0	-0.0	-0.0	-0.0	-0.0	-0.0	-0.0
0.40600000000000014	-0.0	-0.0	-0.0	1.9800677299499512	-5.41564416885376	-674.9114990234375	-0.0	-0.0	-0.0	-0.0	-0.0	-0.0	-0.0	-0.0	-0.0	-0.0	-0.0	-0.0
0.40650000000000014	-0.0	-0.0	-0.0	2.026821613311768	-6.285503387451172	-670.688720703125	-0.0	-0.0	-0.0	-0.0	-0.0	-0.0	-0.0	-0.0	-0.0	-0.0	-0.0	-0.0
0.40700000000000014	-0.0	-0.0	-0.0	1.833786129951477	-7.42258882522583	-666.9606323242188	-0.0	-0.0	-0.0	-0.0	-0.0	-0.0	-0.0	-0.0	-0.0	-0.0	-0.0	-0.0
0.40750000000000014	-0.0	-0.0	-0.0	1.359707593917847	-7.775875568389893	-664.0874633789062	-0.0	-0.0	-0.0	-0.0	-0.0	-0.0	-0.0	-0.0	-0.0	-0.0	-0.0	-0.0
0.40800000000000014	-0.0	-0.0	-0.0	0.73530113697052	-7.684072494506836	-659.5473022460938	-0.0	-0.0	-0.0	-0.0	-0.0	-0.0	-0.0	-0.0	-0.0	-0.0	-0.0	-0.0
0.40850000000000014	-0.0	-0.0	-0.0	0.8945378661155701	-8.043411254882812	-657.8024291992188	-0.0	-0.0	-0.0	-0.0	-0.0	-0.0	-0.0	-0.0	-0.0	-0.0	-0.0	-0.0
0.40900000000000014	-0.0	-0.0	-0.0	1.1575723886489868	-8.130446434020996	-655.0540771484375	-0.0	-0.0	-0.0	-0.0	-0.0	-0.0	-0.0	-0.0	-0.0	-0.0	-0.0	-0.0
0.40950000000000014	-0.0	-0.0	-0.0	1.6949996948242188	-8.307226181030273	-651.2491455078125	-0.0	-0.0	-0.0	-0.0	-0.0	-0.0	-0.0	-0.0	-0.0	-0.0	-0.0	-0.0
0.41000000000000014	-0.0	-0.0	-0.0	2.1175856590271	-8.176551818847656	-649.6775512695312	-0.0	-0.0	-0.0	-0.0	-0.0	-0.0	-0.0	-0.0	-0.0	-0.0	-0.0	-0.0
0.41050000000000014	-0.0	-0.0	-0.0	2.142336845397949	-7.866720199584961	-647.291748046875	-0.0	-0.0	-0.0	-0.0	-0.0	-0.0	-0.0	-0.0	-0.0	-0.0	-0.0	-0.0
0.41100000000000014	-0.0	-0.0	-0.0	1.8945045471191408	-7.441901206970215	-645.7953491210938	-0.0	-0.0	-0.0	-0.0	-0.0	-0.0	-0.0	-0.0	-0.0	-0.0	-0.0	-0.0
0.41150000000000014	-0.0	-0.0	-0.0	2.0726330280303955	-6.974286079406738	-646.4096069335938	-0.0	-0.0	-0.0	-0.0	-0.0	-0.0	-0.0	-0.0	-0.0	-0.0	-0.0	-0.0
0.41200000000000014	-0.0	-0.0	-0.0	2.498696804046631	-6.373023986816406	-647.821533203125	-0.0	-0.0	-0.0	-0.0	-0.0	-0.0	-0.0	-0.0	-0.0	-0.0	-0.0	-0.0
0.41250000000000014	-0.0	-0.0	-0.0	2.475522756576538	-5.570512294769287	-652.411865234375	-0.0	-0.0	-0.0	-0.0	-0.0	-0.0	-0.0	-0.0	-0.0	-0.0	-0.0	-0.0
0.41300000000000014	-0.0	-0.0	-0.0	3.4566879272460938	-5.214040756225586	-656.8255004882812	-0.0	-0.0	-0.0	-0.0	-0.0	-0.0	-0.0	-0.0	-0.0	-0.0	-0.0	-0.0
0.41350000000000015	-0.0	-0.0	-0.0	3.212532997131348	-4.835920333862305	-666.711181640625	-0.0	-0.0	-0.0	-0.0	-0.0	-0.0	-0.0	-0.0	-0.0	-0.0	-0.0	-0.0
0.41400000000000015	-0.0	-0.0	-0.0	4.21539306640625	-4.500692367553711	-676.6865844726562	-0.0	-0.0	-0.0	-0.0	-0.0	-0.0	-0.0	-0.0	-0.0	-0.0	-0.0	-0.0
0.41450000000000015	-0.0	-0.0	-0.0	4.195003032684326	-4.456520080566406	-686.9308471679688	-0.0	-0.0	-0.0	-0.0	-0.0	-0.0	-0.0	-0.0	-0.0	-0.0	-0.0	-0.0
0.41500000000000015	-0.0	-0.0	-0.0	4.481805324554443	-4.970041751861572	-697.435302734375	-0.0	-0.0	-0.0	-0.0	-0.0	-0.0	-0.0	-0.0	-0.0	-0.0	-0.0	-0.0
0.41550000000000015	-0.0	-0.0	-0.0	4.145789623260498	-5.9036407470703125	-709.5253295898438	-0.0	-0.0	-0.0	-0.0	-0.0	-0.0	-0.0	-0.0	-0.0	-0.0	-0.0	-0.0
0.41600000000000015	-0.0	-0.0	-0.0	3.837986707687378	-6.326325416564941	-720.569580078125	-0.0	-0.0	-0.0	-0.0	-0.0	-0.0	-0.0	-0.0	-0.0	-0.0	-0.0	-0.0
0.41650000000000015	-0.0	-0.0	-0.0	3.705602645874024	-6.239128112792969	-730.9830932617188	-0.0	-0.0	-0.0	-0.0	-0.0	-0.0	-0.0	-0.0	-0.0	-0.0	-0.0	-0.0
0.41700000000000015	-0.0	-0.0	-0.0	3.833540439605713	-6.08377742767334	-739.3673095703125	-0.0	-0.0	-0.0	-0.0	-0.0	-0.0	-0.0	-0.0	-0.0	-0.0	-0.0	-0.0
